<?xml version="1.0" encoding="iso-8859-1"?>
<!-- Uploaded to: SVG Repo, www.svgrepo.com, Generator: SVG Repo Mixer Tools -->
<svg height="800px" width="800px" version="1.1" id="Layer_1" xmlns="http://www.w3.org/2000/svg" xmlns:xlink="http://www.w3.org/1999/xlink" 
	 viewBox="0 0 503.607 503.607" xml:space="preserve">
<g transform="translate(1 1)">
	<g>
		<polygon style="fill:#FFE100;" points="234.016,494.213 267.59,494.213 267.59,443.852 234.016,443.852 		"/>
		<path style="fill:#FFE100;" d="M275.984,443.852h-50.361v-1.679c-10.911-60.433-16.787-104.918-16.787-166.19h83.934
			c0,61.272-5.875,105.757-16.787,166.19V443.852z"/>
	</g>
	<path style="fill:#FFA800;" d="M267.59,275.984c0,61.272-5.875,105.757-16.787,166.19v1.679h25.18v-1.679
		c10.911-60.433,16.787-104.918,16.787-166.19H267.59z"/>
	<polygon style="fill:#FFE100;" points="200.443,275.984 301.164,275.984 301.164,242.41 200.443,242.41 	"/>
	<polygon style="fill:#FFA800;" points="275.984,275.984 301.164,275.984 301.164,242.41 275.984,242.41 	"/>
	<path style="fill:#FFE100;" d="M175.262,141.689v8.393c4.197,31.895,16.787,39.449,33.574,67.148l0,0v25.18h83.934v-25.18l0,0
		c16.787-27.698,29.377-35.252,33.574-67.148v-8.393H175.262z"/>
	<path style="fill:#FFA800;" d="M301.164,141.689v8.393c-4.197,31.895-16.787,39.449-33.574,67.148v25.18h25.18v-25.18
		c16.787-27.698,29.377-35.252,33.574-67.148v-8.393H301.164z"/>
	<polygon style="fill:#FFE100;" points="158.475,141.689 343.131,141.689 343.131,108.115 158.475,108.115 	"/>
	<polygon style="fill:#FFA800;" points="317.951,141.689 343.131,141.689 343.131,108.115 317.951,108.115 	"/>
	<g>
		<path style="fill:#FFFFFF;" d="M234.016,275.984c0,61.272,5.875,105.757,16.787,166.19v1.679h-25.18v-1.679
			c-10.911-60.433-16.787-104.918-16.787-166.19H234.016z"/>
		<polygon style="fill:#FFFFFF;" points="200.443,275.984 225.623,275.984 225.623,242.41 200.443,242.41 		"/>
		<path style="fill:#FFFFFF;" d="M200.443,141.689v8.393c4.197,31.895,16.787,39.449,33.574,67.148v25.18h-25.18v-25.18
			c-16.787-27.698-29.377-35.252-33.574-67.148v-8.393H200.443z"/>
		<polygon style="fill:#FFFFFF;" points="158.475,141.689 183.656,141.689 183.656,108.115 158.475,108.115 		"/>
	</g>
	<g>
		<path style="fill:#FFE100;" d="M217.229,108.115h-33.574V24.18c0-9.233,7.554-16.787,16.787-16.787l0,0
			c9.233,0,16.787,7.554,16.787,16.787V108.115z"/>
		<path style="fill:#FFE100;" d="M317.951,108.115h-33.574V24.18c0-9.233,7.554-16.787,16.787-16.787l0,0
			c9.233,0,16.787,7.554,16.787,16.787V108.115z"/>
	</g>
	<path d="M267.59,502.607h-33.574c-5.036,0-8.393-3.357-8.393-8.393v-50.361c0-5.036,3.357-8.393,8.393-8.393h33.574
		c5.036,0,8.393,3.357,8.393,8.393v50.361C275.984,499.249,272.626,502.607,267.59,502.607z M242.41,485.82h16.787v-33.574H242.41
		V485.82z"/>
	<path d="M275.984,452.246h-50.361c-4.197,0-7.554-2.518-8.393-6.715v-1.679c-10.911-57.915-16.787-104.079-16.787-167.869
		c0-5.036,3.357-8.393,8.393-8.393h83.934c5.036,0,8.393,3.357,8.393,8.393c0,63.79-5.875,109.954-16.787,167.869v1.679
		C283.538,449.728,280.18,452.246,275.984,452.246z M232.338,435.459h36.092c9.233-52.039,15.108-94.846,15.108-151.082H216.39
		C218.069,340.613,223.105,383.42,232.338,435.459z"/>
	<path d="M301.164,284.377H200.443c-5.036,0-8.393-3.357-8.393-8.393V242.41c0-5.036,3.357-8.393,8.393-8.393h100.721
		c5.036,0,8.393,3.357,8.393,8.393v33.574C309.557,281.02,306.2,284.377,301.164,284.377z M208.836,267.59h83.934v-16.787h-83.934
		V267.59z"/>
	<path d="M292.77,250.803h-83.934c-5.036,0-8.393-3.357-8.393-8.393v-22.662c-4.197-6.715-8.393-12.59-11.751-17.626
		c-10.072-14.269-18.466-26.02-21.823-51.2v-0.839v-8.393c0-5.036,3.357-8.393,8.393-8.393h151.082c5.036,0,8.393,3.357,8.393,8.393
		v8.393v0.839c-3.357,25.18-11.751,36.092-21.823,51.2c-3.357,5.036-7.554,10.911-11.751,17.626v22.662
		C301.164,247.446,297.807,250.803,292.77,250.803z M217.229,234.016h67.148v-16.787c0-1.679,0-3.357,0.839-4.197
		c5.036-8.393,9.233-14.269,13.43-20.144c9.233-13.43,15.948-22.662,18.466-42.807H183.656c3.357,20.144,9.233,29.377,18.466,42.807
		c4.197,5.875,8.393,11.751,13.43,20.144c1.679,0.839,1.679,2.518,1.679,4.197V234.016z"/>
	<path d="M343.131,150.082H158.475c-5.036,0-8.393-3.357-8.393-8.393v-33.574c0-5.036,3.357-8.393,8.393-8.393h184.656
		c5.036,0,8.393,3.357,8.393,8.393v33.574C351.525,146.725,348.167,150.082,343.131,150.082z M166.869,133.295h167.869v-16.787
		H166.869V133.295z"/>
	<path d="M217.229,116.508h-33.574c-5.036,0-8.393-3.357-8.393-8.393V24.18c0-14.269,10.911-25.18,25.18-25.18
		s25.18,10.911,25.18,25.18v83.934C225.623,113.151,222.266,116.508,217.229,116.508z M192.049,99.721h16.787V24.18
		c0-5.036-3.357-8.393-8.393-8.393s-8.393,4.197-8.393,8.393V99.721z"/>
	<path d="M317.951,116.508h-33.574c-5.036,0-8.393-3.357-8.393-8.393V24.18c0-14.269,10.911-25.18,25.18-25.18
		s25.18,10.911,25.18,25.18v83.934C326.344,113.151,322.987,116.508,317.951,116.508z M292.77,99.721h16.787V24.18
		c0-5.036-3.357-8.393-8.393-8.393s-8.393,3.357-8.393,8.393V99.721z"/>
	<path d="M234.016,385.098h-19.305c-5.036,0-8.393-3.357-8.393-8.393s3.357-8.393,8.393-8.393h19.305
		c5.036,0,8.393,3.357,8.393,8.393S239.052,385.098,234.016,385.098z"/>
	<path d="M286.895,385.098H267.59c-5.036,0-8.393-3.357-8.393-8.393s3.357-8.393,8.393-8.393h19.305
		c5.036,0,8.393,3.357,8.393,8.393S291.092,385.098,286.895,385.098z"/>
	<path d="M234.016,351.525h-22.662c-5.036,0-8.393-3.357-8.393-8.393c0-5.036,3.357-8.393,8.393-8.393h22.662
		c5.036,0,8.393,3.357,8.393,8.393C242.41,348.167,239.052,351.525,234.016,351.525z"/>
	<path d="M290.252,351.525H267.59c-5.036,0-8.393-3.357-8.393-8.393c0-5.036,3.357-8.393,8.393-8.393h22.662
		c5.036,0,8.393,3.357,8.393,8.393C298.646,348.167,294.449,351.525,290.252,351.525z"/>
	<path d="M234.016,317.951h-24.341c-5.036,0-8.393-3.357-8.393-8.393c0-5.036,3.357-8.393,8.393-8.393h24.341
		c5.036,0,8.393,3.357,8.393,8.393C242.41,314.593,239.052,317.951,234.016,317.951z"/>
	<path d="M291.931,317.951H267.59c-5.036,0-8.393-3.357-8.393-8.393c0-5.036,3.357-8.393,8.393-8.393h24.341
		c5.036,0,8.393,3.357,8.393,8.393C300.325,314.593,296.967,317.951,291.931,317.951z"/>
	<path d="M234.016,418.672h-14.269c-5.036,0-8.393-3.357-8.393-8.393c0-5.036,3.357-8.393,8.393-8.393h14.269
		c5.036,0,8.393,3.357,8.393,8.393C242.41,415.315,239.052,418.672,234.016,418.672z"/>
	<path d="M281.859,418.672H267.59c-5.036,0-8.393-3.357-8.393-8.393c0-5.036,3.357-8.393,8.393-8.393h14.269
		c5.036,0,8.393,3.357,8.393,8.393C290.252,415.315,286.056,418.672,281.859,418.672z"/>
	<path d="M385.098,502.607h-268.59c-5.036,0-8.393-3.357-8.393-8.393c0-5.036,3.357-8.393,8.393-8.393h268.59
		c5.036,0,8.393,3.357,8.393,8.393C393.492,499.249,390.134,502.607,385.098,502.607z"/>
</g>
</svg>