<?xml version="1.0" encoding="iso-8859-1"?>
<!-- Uploaded to: SVG Repo, www.svgrepo.com, Generator: SVG Repo Mixer Tools -->
<svg height="800px" width="800px" version="1.1" id="Layer_1" xmlns="http://www.w3.org/2000/svg" xmlns:xlink="http://www.w3.org/1999/xlink" 
	 viewBox="0 0 512 512" xml:space="preserve">
<g transform="translate(1 1)">
	<polygon style="fill:#FDCC00;" points="7.533,35.693 35.693,7.533 63.853,35.693 35.693,63.853 	"/>
	<path style="fill:#FFE100;" d="M92.013,63.853l23.893-23.893"/>
	<polygon style="fill:#FDCC00;" points="14.36,85.187 85.187,14.36 149.187,63.853 63.853,149.187 	"/>
	<g>
		<path style="fill:#FFE100;" d="M149.187,304.493l155.307-155.307c7.68-7.68,20.48-7.68,28.16,0l0,0c7.68,7.68,7.68,20.48,0,28.16
			L177.347,332.653c-7.68,7.68-20.48,7.68-28.16,0l0,0C141.507,324.973,141.507,312.173,149.187,304.493"/>
		<path style="fill:#FFE100;" d="M68.973,144.067l75.093-75.093c14.507-14.507,38.4-15.36,54.613-1.707l105.813,81.92
			L149.187,304.493L67.267,198.68C53.613,182.467,54.467,158.573,68.973,144.067"/>
	</g>
	<path style="fill:#63D3FD;" d="M151.747,161.133l9.387-9.387c20.48-20.48,54.613-20.48,75.093,0l33.28,33.28l-84.48,84.48
		l-33.28-33.28C130.413,215.747,130.413,181.613,151.747,161.133"/>
	<g>
		<polygon style="fill:#FDCC00;" points="502.467,474.307 474.307,502.467 446.147,474.307 474.307,446.147 		"/>
		<polygon style="fill:#FDCC00;" points="495.64,424.813 424.813,495.64 360.813,446.147 446.147,360.813 		"/>
	</g>
	<g>
		<path style="fill:#FFE100;" d="M360.813,205.507L205.507,360.813c-7.68,7.68-20.48,7.68-28.16,0l0,0
			c-7.68-7.68-7.68-20.48,0-28.16l155.307-155.307c7.68-7.68,20.48-7.68,28.16,0l0,0
			C368.493,185.027,368.493,197.827,360.813,205.507"/>
		<path style="fill:#FFE100;" d="M441.027,365.933l-75.093,75.093c-14.507,14.507-38.4,15.36-54.613,1.707l-105.813-81.92
			l155.307-155.307l81.92,105.813C456.387,327.533,455.533,351.427,441.027,365.933"/>
	</g>
	<path style="fill:#63D3FD;" d="M359.96,348.013l-12.8,12.8c-19.627,19.627-52.053,19.627-72.533,0l-34.133-34.133l84.48-84.48
		l34.133,34.133C380.44,295.107,380.44,327.533,359.96,348.013"/>
	<path d="M35.693,72.387c-2.56,0-4.267-0.853-5.973-2.56L1.56,41.667c-3.413-3.413-3.413-8.533,0-11.947L29.72,1.56
		c3.413-3.413,8.533-3.413,11.947,0l28.16,28.16c1.707,1.707,2.56,3.413,2.56,5.973c0,2.56-0.853,4.267-2.56,5.973l-28.16,28.16
		C39.96,71.533,38.253,72.387,35.693,72.387z M19.48,35.693l16.213,16.213l16.213-16.213L35.693,19.48L19.48,35.693z"/>
	<path d="M92.013,72.387c-2.56,0-4.267-0.853-5.973-2.56c-3.413-3.413-3.413-8.533,0-11.947l23.893-23.04
		c3.413-3.413,8.533-3.413,11.947,0s3.413,8.533,0,11.947L97.987,70.68C97.133,71.533,94.573,72.387,92.013,72.387z"/>
	<path d="M40.813,124.44c-2.56,0-4.267-0.853-5.973-2.56c-3.413-3.413-3.413-8.533,0-11.947L58.733,86.04
		c3.413-3.413,8.533-3.413,11.947,0c3.413,3.413,3.413,8.533,0,11.947L46.787,121.88C45.08,123.587,42.52,124.44,40.813,124.44z"/>
	<path d="M63.853,157.72L63.853,157.72c-2.56,0-5.12-1.707-6.827-3.413l-49.493-64c-2.56-3.413-2.56-8.533,0.853-11.093
		L79.213,8.387c3.413-2.56,7.68-3.413,11.093-0.853l64,49.493c1.707,1.707,3.413,3.413,3.413,5.973c0,2.56-0.853,5.12-2.56,6.827
		l-84.48,84.48C68.12,156.867,66.413,157.72,63.853,157.72z M26.307,86.04l39.253,50.347l70.827-70.827L86.04,26.307L26.307,86.04z"
		/>
	<path d="M162.84,347.16c-7.68,0-14.507-2.56-20.48-8.533c-11.093-11.093-11.093-29.013,0-40.107l155.307-155.307
		c11.093-11.093,29.867-11.093,40.107,0c11.093,11.093,11.093,29.013,0,40.107L183.32,338.627
		C178.2,344.6,170.52,347.16,162.84,347.16z M319,151.747c-3.413,0-5.973,0.853-8.533,3.413L155.16,310.467
		c-4.267,4.267-4.267,11.947,0,16.213s11.947,4.267,16.213,0L326.68,171.373c4.267-4.267,4.267-11.947,0-16.213
		C324.973,152.6,321.56,151.747,319,151.747z"/>
	<path d="M149.187,313.027C149.187,313.027,148.333,313.027,149.187,313.027c-3.413,0-5.12-1.707-6.827-3.413L60.44,203.8
		c-16.213-18.773-15.36-47.787,2.56-65.707L138.093,63c9.387-9.387,21.333-14.507,34.133-14.507c11.947,0,23.04,4.267,31.573,11.947
		l105.813,81.92c1.707,1.707,3.413,3.413,3.413,5.973s-0.853,5.12-2.56,6.827L155.16,310.467
		C153.453,312.173,150.893,313.027,149.187,313.027z M172.227,66.413c-8.533,0-16.213,3.413-22.187,9.387l-75.093,75.093
		C63,162.84,63,181.613,73.24,193.56l75.947,98.987L290.84,150.893l-98.133-76.8C186.733,68.973,179.907,66.413,172.227,66.413z"/>
	<path d="M184.173,278.04L184.173,278.04c-2.56,0-4.267-0.853-5.973-2.56l-33.28-33.28C132.973,230.253,127,214.893,127,198.68
		s6.827-32.427,17.92-43.52l9.387-9.387c11.947-11.947,27.307-17.92,43.52-17.92s32.427,6.827,43.52,17.92l33.28,33.28
		c1.707,1.707,2.56,3.413,2.56,5.973s-0.853,4.267-2.56,5.973l-84.48,84.48C188.44,277.187,186.733,278.04,184.173,278.04z
		 M198.68,144.067c-11.947,0-23.04,4.267-31.573,12.8l-9.387,9.387c-8.533,8.533-12.8,19.627-12.8,31.573
		c0,11.947,4.267,23.04,12.8,31.573l27.307,27.307l72.533-72.533l-27.307-27.307C221.72,149.187,210.627,144.067,198.68,144.067z"/>
	<path d="M474.307,511c-2.56,0-4.267-0.853-5.973-2.56l-28.16-28.16c-1.707-1.707-2.56-3.413-2.56-5.973s0.853-4.267,2.56-5.973
		l28.16-28.16c3.413-3.413,8.533-3.413,11.947,0l28.16,28.16c1.707,1.707,2.56,3.413,2.56,5.973s-0.853,4.267-2.56,5.973
		l-28.16,28.16C478.573,510.147,476.013,511,474.307,511z M458.093,474.307l16.213,16.213l16.213-16.213l-16.213-16.213
		L458.093,474.307z"/>
	<path d="M394.093,477.72c-2.56,0-4.267-0.853-5.973-2.56c-3.413-3.413-3.413-8.533,0-11.947l23.893-23.893
		c3.413-3.413,8.533-3.413,11.947,0c3.413,3.413,3.413,8.533,0,11.947l-23.893,23.893C398.36,476.867,396.653,477.72,394.093,477.72
		z"/>
	<path d="M446.147,426.52c-2.56,0-4.267-0.853-5.973-2.56c-3.413-3.413-3.413-8.533,0-11.947l23.893-23.893
		c3.413-3.413,8.533-3.413,11.947,0c3.413,3.413,3.413,8.533,0,11.947L452.12,423.96C450.413,425.667,447.853,426.52,446.147,426.52
		z"/>
	<path d="M424.813,504.173c-1.707,0-3.413-0.853-5.12-1.707l-64-49.493c-1.707-1.707-3.413-3.413-3.413-5.973s0.853-5.12,2.56-6.827
		l84.48-84.48c1.707-1.707,4.267-2.56,6.827-2.56s5.12,1.707,5.973,3.413l49.493,64c2.56,3.413,2.56,8.533-0.853,11.093
		l-70.827,70.827C429.08,503.32,426.52,504.173,424.813,504.173z M373.613,445.293l50.347,39.253l59.733-59.733l-39.253-50.347
		L373.613,445.293z"/>
	<path d="M191,375.32c-7.68,0-14.507-2.56-20.48-8.533c-11.093-11.093-11.093-29.013,0-40.107l155.307-155.307
		c11.093-11.093,29.867-11.093,40.107,0c5.12,5.12,8.533,12.8,8.533,20.48s-2.56,14.507-8.533,20.48L211.48,366.787
		C206.36,372.76,198.68,375.32,191,375.32z M347.16,179.907c-3.413,0-5.973,0.853-8.533,3.413L183.32,338.627
		c-4.267,4.267-4.267,11.947,0,16.213c4.267,4.267,11.947,4.267,16.213,0L354.84,199.533c2.56-2.56,3.413-5.12,3.413-7.68
		c0-3.413-0.853-5.973-3.413-8.533C353.133,180.76,349.72,179.907,347.16,179.907z"/>
	<path d="M337.773,461.507c-11.947,0-23.04-4.267-31.573-11.947l-105.813-81.92c-1.707-1.707-3.413-3.413-3.413-5.973
		s0.853-5.12,2.56-6.827L354.84,199.533c1.707-1.707,4.267-2.56,6.827-2.56s5.12,1.707,5.973,3.413L449.56,306.2
		c16.213,18.773,15.36,47.787-2.56,65.707L371.907,447C363.373,456.387,350.573,461.507,337.773,461.507z M218.307,359.96
		l98.133,75.947c12.8,11.093,31.573,10.24,43.52-1.707l75.093-75.093C447,347.16,447,328.387,436.76,316.44l-75.947-98.987
		L218.307,359.96z"/>
	<path d="M311.32,383.853c-16.213,0-30.72-5.973-41.813-17.067l-34.133-34.133c-3.413-3.413-3.413-8.533,0-11.947l84.48-84.48
		c3.413-3.413,8.533-3.413,11.947,0l34.133,34.133c23.04,23.04,23.04,61.44,0,84.48l-11.947,11.093
		C342.893,377.88,327.533,383.853,311.32,383.853z M253.293,325.827l28.16,28.16c7.68,7.68,18.773,12.8,29.867,12.8
		s22.187-4.267,29.867-12.8l12.8-12.8c16.213-16.213,16.213-43.52,0-60.587l-28.16-28.16L253.293,325.827z"/>
</g>
</svg>