<?xml version="1.0" encoding="iso-8859-1"?>
<!-- Uploaded to: SVG Repo, www.svgrepo.com, Generator: SVG Repo Mixer Tools -->
<svg height="800px" width="800px" version="1.1" id="Layer_1" xmlns="http://www.w3.org/2000/svg" xmlns:xlink="http://www.w3.org/1999/xlink" 
	 viewBox="0 0 503.607 503.607" xml:space="preserve">
<g transform="translate(1 1)">
	<g>
		<polygon style="fill:#FFE100;" points="435.459,7.393 443.852,208.836 410.279,208.836 418.672,7.393 		"/>
		<polygon style="fill:#FFE100;" points="401.885,317.951 452.246,317.951 452.246,208.836 401.885,208.836 		"/>
		<polygon style="fill:#FFE100;" points="82.934,7.393 91.328,208.836 57.754,208.836 66.148,7.393 		"/>
		<polygon style="fill:#FFE100;" points="49.361,317.951 99.721,317.951 99.721,208.836 49.361,208.836 		"/>
		<polygon style="fill:#FFE100;" points="49.361,494.213 116.508,494.213 116.508,469.033 49.361,469.033 		"/>
		<polygon style="fill:#FFE100;" points="385.098,494.213 452.246,494.213 452.246,469.033 385.098,469.033 		"/>
		<path style="fill:#FFE100;" d="M24.18,317.951c-9.233,0-16.787,7.554-16.787,16.787v117.508c0,9.233,7.554,16.787,16.787,16.787
			h453.246c9.233,0,16.787-7.554,16.787-16.787V334.738c0-9.233-7.554-16.787-16.787-16.787H24.18z"/>
	</g>
	<path style="fill:#FFA800;" d="M477.426,452.246V334.738c0-9.233-7.554-16.787-16.787-16.787h16.787
		c9.233,0,16.787,7.554,16.787,16.787v117.508c0,9.233-7.554,16.787-16.787,16.787h-16.787
		C469.872,469.033,477.426,461.479,477.426,452.246"/>
	<path style="fill:#FFFFFF;" d="M24.18,452.246V334.738c0-9.233,7.554-16.787,16.787-16.787H24.18
		c-9.233,0-16.787,7.554-16.787,16.787v117.508c0,9.233,7.554,16.787,16.787,16.787h16.787
		C31.734,469.033,24.18,461.479,24.18,452.246"/>
	<path d="M477.426,477.426H24.18C9.911,477.426-1,466.515-1,452.246V334.738c0-14.269,10.911-25.18,25.18-25.18h453.246
		c14.269,0,25.18,10.911,25.18,25.18v117.508C502.607,466.515,491.695,477.426,477.426,477.426z M24.18,326.344
		c-5.036,0-8.393,3.357-8.393,8.393v117.508c0,5.036,3.357,8.393,8.393,8.393h453.246c5.036,0,8.393-3.357,8.393-8.393V334.738
		c0-5.036-3.357-8.393-8.393-8.393H24.18z"/>
	<path d="M443.852,217.229L443.852,217.229h-33.574c-2.518,0-4.197-0.839-5.875-2.518c-1.679-1.679-2.518-4.197-2.518-5.875
		l8.393-201.443c0-4.197,4.197-8.393,8.393-8.393h16.787c4.197,0,8.393,3.357,8.393,8.393l8.393,199.764c0,0.839,0,1.679,0,1.679
		C452.246,213.033,448.888,217.229,443.852,217.229z M418.672,200.443h16.787l-8.393-184.656l0,0L418.672,200.443z"/>
	<path d="M452.246,250.803h-50.361c-5.036,0-8.393-3.357-8.393-8.393s3.357-8.393,8.393-8.393h50.361
		c5.036,0,8.393,3.357,8.393,8.393S457.282,250.803,452.246,250.803z"/>
	<path d="M452.246,284.377h-50.361c-5.036,0-8.393-3.357-8.393-8.393c0-5.036,3.357-8.393,8.393-8.393h50.361
		c5.036,0,8.393,3.357,8.393,8.393S457.282,284.377,452.246,284.377z"/>
	<path d="M116.508,502.607H49.361c-5.036,0-8.393-3.357-8.393-8.393v-25.18c0-5.036,3.357-8.393,8.393-8.393h67.148
		c5.036,0,8.393,3.357,8.393,8.393v25.18C124.902,499.249,121.544,502.607,116.508,502.607z M57.754,485.82h50.361v-8.393H57.754
		V485.82z"/>
	<path d="M452.246,502.607h-67.148c-5.036,0-8.393-3.357-8.393-8.393v-25.18c0-5.036,3.357-8.393,8.393-8.393h67.148
		c5.036,0,8.393,3.357,8.393,8.393v25.18C460.639,499.249,457.282,502.607,452.246,502.607z M393.492,485.82h50.361v-8.393h-50.361
		V485.82z"/>
	<path d="M452.246,326.344h-50.361c-5.036,0-8.393-3.357-8.393-8.393V208.836c0-5.036,3.357-8.393,8.393-8.393h50.361
		c5.036,0,8.393,3.357,8.393,8.393v109.115C460.639,322.987,457.282,326.344,452.246,326.344z M410.279,309.557h33.574v-92.328
		h-33.574V309.557z"/>
	<path d="M91.328,217.229L91.328,217.229H57.754c-2.518,0-4.197-0.839-5.875-2.518c-1.679-1.679-2.518-4.197-2.518-6.715
		L57.754,7.393C57.754,3.197,61.951-1,66.148-1h16.787c4.197,0,8.393,3.357,8.393,8.393l8.393,199.764c0,0.839,0,1.679,0,1.679
		C99.721,213.033,96.364,217.229,91.328,217.229z M66.148,200.443h16.787L74.541,15.787l0,0L66.148,200.443z"/>
	<path d="M99.721,250.803H49.361c-5.036,0-8.393-3.357-8.393-8.393s3.357-8.393,8.393-8.393h50.361c5.036,0,8.393,3.357,8.393,8.393
		S104.757,250.803,99.721,250.803z"/>
	<path d="M99.721,284.377H49.361c-5.036,0-8.393-3.357-8.393-8.393c0-5.036,3.357-8.393,8.393-8.393h50.361
		c5.036,0,8.393,3.357,8.393,8.393S104.757,284.377,99.721,284.377z"/>
	<path d="M99.721,326.344H49.361c-5.036,0-8.393-3.357-8.393-8.393V208.836c0-5.036,3.357-8.393,8.393-8.393h50.361
		c5.036,0,8.393,3.357,8.393,8.393v109.115C108.115,322.987,104.757,326.344,99.721,326.344z M57.754,309.557h33.574v-92.328H57.754
		V309.557z"/>
	<path style="fill:#63D3FD;" d="M292.77,393.492c0,23.502-18.466,41.967-41.967,41.967s-41.967-18.466-41.967-41.967
		c0-23.502,18.466-41.967,41.967-41.967S292.77,369.99,292.77,393.492"/>
	<path style="fill:#3DB9F9;" d="M250.803,351.525c-4.197,0-8.393,0.839-12.59,2.518c16.787,5.036,29.377,20.984,29.377,39.449
		s-12.59,34.413-29.377,39.449c4.197,1.679,8.393,2.518,12.59,2.518c23.502,0,41.967-18.466,41.967-41.967
		C292.77,369.99,274.305,351.525,250.803,351.525"/>
	<path d="M250.803,443.852c-27.698,0-50.361-22.662-50.361-50.361c0-27.698,22.662-50.361,50.361-50.361
		s50.361,22.662,50.361,50.361C301.164,421.19,278.502,443.852,250.803,443.852z M250.803,359.918
		c-18.466,0-33.574,15.108-33.574,33.574s15.108,33.574,33.574,33.574s33.574-15.108,33.574-33.574S269.269,359.918,250.803,359.918
		z"/>
	<path d="M66.148,401.885H49.361c-5.036,0-8.393-3.357-8.393-8.393c0-5.036,3.357-8.393,8.393-8.393h16.787
		c5.036,0,8.393,3.357,8.393,8.393C74.541,398.528,71.184,401.885,66.148,401.885z"/>
	<path d="M116.508,401.885H99.721c-5.036,0-8.393-3.357-8.393-8.393c0-5.036,3.357-8.393,8.393-8.393h16.787
		c5.036,0,8.393,3.357,8.393,8.393C124.902,398.528,121.544,401.885,116.508,401.885z"/>
	<path d="M166.869,401.885h-16.787c-5.036,0-8.393-3.357-8.393-8.393c0-5.036,3.357-8.393,8.393-8.393h16.787
		c5.036,0,8.393,3.357,8.393,8.393C175.262,398.528,171.905,401.885,166.869,401.885z"/>
	<path d="M351.525,401.885h-16.787c-5.036,0-8.393-3.357-8.393-8.393c0-5.036,3.357-8.393,8.393-8.393h16.787
		c5.036,0,8.393,3.357,8.393,8.393C359.918,398.528,356.561,401.885,351.525,401.885z"/>
	<path d="M401.885,401.885h-16.787c-5.036,0-8.393-3.357-8.393-8.393c0-5.036,3.357-8.393,8.393-8.393h16.787
		c5.036,0,8.393,3.357,8.393,8.393C410.279,398.528,406.921,401.885,401.885,401.885z"/>
	<path d="M452.246,401.885h-16.787c-5.036,0-8.393-3.357-8.393-8.393c0-5.036,3.357-8.393,8.393-8.393h16.787
		c5.036,0,8.393,3.357,8.393,8.393C460.639,398.528,457.282,401.885,452.246,401.885z"/>
</g>
</svg>