<?xml version="1.0" encoding="iso-8859-1"?>
<!-- Uploaded to: SVG Repo, www.svgrepo.com, Generator: SVG Repo Mixer Tools -->
<svg height="800px" width="800px" version="1.1" id="Layer_1" xmlns="http://www.w3.org/2000/svg" xmlns:xlink="http://www.w3.org/1999/xlink" 
	 viewBox="0 0 506.145 506.145" xml:space="preserve">
<g transform="translate(1 1)">
	<g>
		<path style="fill:#FFE100;" d="M231.96,185.939l23.04-23.04l57.173,57.173c5.973,5.973,5.973,17.067,0,23.04
			c-5.973,5.973-17.067,5.973-23.04,0L231.96,185.939z"/>
		<path style="fill:#FFE100;" d="M162.84,255.059l23.04-23.04l57.173,57.173c5.973,5.973,5.973,17.067,0,23.04
			c-5.973,5.973-17.067,5.973-23.04,0L162.84,255.059z"/>
	</g>
	<g>
		<polygon style="fill:#FDCC00;" points="7.533,30.632 30.573,7.592 53.613,30.632 30.573,53.672 		"/>
		<polygon style="fill:#FDCC00;" points="13.507,70.739 70.68,13.566 122.733,53.672 53.613,122.792 		"/>
	</g>
	<g>
		<path style="fill:#FFE100;" d="M122.733,249.086l126.293-126.293c5.973-5.973,17.067-5.973,23.04,0s5.973,17.067,0,23.04
			L145.773,272.126c-5.973,5.973-17.067,5.973-23.04,0C115.907,266.152,115.907,255.912,122.733,249.086"/>
		<path style="fill:#FFE100;" d="M57.88,118.526l60.587-60.587c11.947-11.947,31.573-12.8,44.373-1.707l86.187,66.56
			L122.733,249.086l-66.56-86.187C45.08,150.099,45.933,130.472,57.88,118.526"/>
	</g>
	<path style="fill:#63D3FD;" d="M121.027,135.592l14.507-14.507c15.36-15.36,39.253-15.36,54.613,0l29.867,29.867l-68.267,69.973
		l-29.867-29.867C105.667,174.846,105.667,150.952,121.027,135.592"/>
	<polygon style="fill:#FFE100;" points="502.467,479.486 479.427,502.526 456.387,479.486 479.427,456.446 	"/>
	<polygon style="fill:#FDCC00;" points="496.493,439.379 439.32,496.552 387.267,456.446 456.387,387.326 	"/>
	<g>
		<path style="fill:#FFE100;" d="M387.267,261.032L260.973,387.326c-5.973,5.973-17.067,5.973-23.04,0
			c-5.973-5.973-5.973-17.067,0-23.04l126.293-126.293c5.973-5.973,17.067-5.973,23.04,0
			C394.093,243.966,394.093,254.206,387.267,261.032"/>
		<path style="fill:#FFE100;" d="M452.12,391.592l-60.587,60.587c-11.947,11.947-31.573,12.8-44.373,1.707l-86.187-66.56
			l126.293-126.293l66.56,86.187C464.92,360.019,464.067,379.646,452.12,391.592"/>
	</g>
	<path style="fill:#63D3FD;" d="M388.973,374.526l-14.507,14.507c-15.36,15.36-39.253,15.36-54.613,0l-30.72-30.72l69.12-69.12
		l30.72,30.72C404.333,335.272,404.333,359.166,388.973,374.526"/>
	<path d="M301.08,256.766c-6.827,0-12.8-2.56-17.92-7.68l-57.173-57.173c-1.707-1.707-2.56-3.413-2.56-5.973s0.853-4.267,2.56-5.973
		l23.04-23.04c3.413-3.413,8.533-3.413,11.947,0l57.173,57.173c4.267,4.267,7.68,11.093,7.68,17.92s-2.56,12.8-7.68,17.92
		C313.027,255.059,307.907,256.766,301.08,256.766z M243.907,185.939l51.2,51.2c2.56,2.56,7.68,2.56,11.093,0
		c1.707-1.707,2.56-3.413,2.56-5.12c0-1.707-0.853-4.267-2.56-5.12l-51.2-51.2L243.907,185.939z"/>
	<path d="M231.96,325.886c-6.827,0-12.8-2.56-17.92-7.68l-57.173-57.173c-3.413-3.413-3.413-8.533,0-11.947l23.04-23.04
		c3.413-3.413,8.533-3.413,11.947,0l57.173,57.173c4.267,4.267,7.68,11.093,7.68,17.92s-2.56,12.8-7.68,17.92
		C243.907,324.179,238.787,325.886,231.96,325.886z M174.787,255.059l51.2,51.2c2.56,2.56,7.68,2.56,11.093,0
		c1.707-1.707,2.56-3.413,2.56-5.12s-0.853-4.267-2.56-5.12l-51.2-51.2L174.787,255.059z"/>
	<path d="M30.573,62.206c-2.56,0-4.267-0.853-5.973-2.56L1.56,36.606C-0.147,34.899-1,33.192-1,30.632s0.853-4.267,2.56-5.973
		L24.6,1.619c1.707-1.707,3.413-2.56,5.973-2.56l0,0c2.56,0,4.267,0.853,5.973,2.56l23.04,23.04c3.413,3.413,3.413,8.533,0,11.947
		l-23.04,23.04C34.84,61.352,33.133,62.206,30.573,62.206z M19.48,30.632l11.093,11.093l11.093-11.093L30.573,19.539L19.48,30.632z"
		/>
	<path d="M76.653,62.206c-2.56,0-4.267-0.853-5.973-2.56c-3.413-3.413-3.413-8.533,0-11.947l18.773-18.773
		c3.413-3.413,8.533-3.413,11.947,0c3.413,3.413,3.413,8.533,0,11.947L82.627,59.646C80.92,61.352,78.36,62.206,76.653,62.206z"/>
	<path d="M33.987,104.019c-2.56,0-4.267-0.853-5.973-2.56c-3.413-2.56-3.413-8.533,0-11.947l18.773-18.773
		c3.413-3.413,8.533-3.413,11.947,0c3.413,3.413,3.413,8.533,0,11.947L39.96,101.459C39.107,103.166,36.547,104.019,33.987,104.019z
		"/>
	<path d="M53.613,131.326L53.613,131.326c-2.56,0-5.12-1.707-6.827-3.413L6.68,75.859c-2.56-3.413-2.56-8.533,0.853-11.093
		L64.707,7.592c3.413-3.413,7.68-3.413,11.093-0.853l52.053,40.107c1.707,1.707,3.413,3.413,3.413,5.973
		c0,2.56-0.853,5.12-2.56,6.827l-69.12,69.12C57.88,130.472,56.173,131.326,53.613,131.326z M24.6,71.592l29.867,38.4l55.467-55.467
		l-38.4-29.867L24.6,71.592z"/>
	<path d="M133.827,285.779c-6.827,0-12.8-2.56-17.92-7.68c-4.267-4.267-7.68-11.093-7.68-17.92c0-6.827,2.56-12.8,7.68-17.92
		L242.2,115.966c9.387-9.387,25.6-9.387,34.987,0c4.267,4.267,7.68,11.093,7.68,17.92s-2.56,12.8-7.68,17.92l-125.44,126.293
		C146.627,283.219,140.653,285.779,133.827,285.779z M260.973,126.206c-1.707,0-4.267,0.853-5.12,2.56L128.707,255.059
		c-1.707,1.707-2.56,3.413-2.56,5.12c0,1.707,0.853,4.267,2.56,5.12c2.56,2.56,7.68,2.56,11.093,0l126.293-126.293
		c1.707-1.707,2.56-3.413,2.56-5.12s-0.853-4.267-2.56-5.12C264.387,127.912,262.68,126.206,260.973,126.206z"/>
	<path d="M122.733,257.619C122.733,257.619,121.88,257.619,122.733,257.619c-3.413,0-5.12-1.707-6.827-3.413l-66.56-86.187
		c-13.653-16.213-12.8-40.107,2.56-55.467l60.587-60.587c7.68-7.68,17.92-11.947,29.013-11.947c10.24,0,19.627,3.413,26.453,10.24
		l86.187,66.56c1.707,1.707,3.413,3.413,3.413,5.973c0,2.56-0.853,4.267-2.56,5.973L128.707,255.059
		C127,256.766,125.293,257.619,122.733,257.619z M141.507,57.086c-6.827,0-12.8,2.56-17.067,6.827l-60.587,60.587
		c-8.533,8.533-9.387,23.04-0.853,32.427l60.587,79.36l112.64-112.64L157.72,63.059C152.6,58.792,147.48,57.086,141.507,57.086z"/>
	<path d="M151.747,229.459c-2.56,0-4.267-0.853-5.973-2.56l-29.867-29.867c-18.773-18.773-18.773-48.64,0-66.56l14.507-14.507
		c8.533-8.533,20.48-13.653,33.28-13.653c12.8,0,24.747,5.12,33.28,13.653l29.867,29.867c3.413,3.413,3.413,8.533,0,11.947
		l-69.12,69.12C156.013,228.606,153.453,229.459,151.747,229.459z M162.84,118.526c-7.68,0-15.36,3.413-21.333,8.533L127,141.566
		c-11.947,11.947-11.947,30.72,0,42.667l23.893,23.893l57.173-57.173l-23.893-23.893C178.2,121.939,171.373,118.526,162.84,118.526z
		"/>
	<polygon style="fill:#FDCC00;" points="502.467,479.486 479.427,502.526 456.387,479.486 479.427,456.446 	"/>
	<path d="M414.573,484.606c-2.56,0-4.267-0.853-5.973-2.56c-3.413-3.413-3.413-8.533,0-11.947l18.773-18.773
		c3.413-3.413,8.533-3.413,11.947,0c3.413,3.413,3.413,8.533,0,11.947l-18.773,18.773
		C418.84,483.752,416.28,484.606,414.573,484.606z"/>
	<path d="M456.387,441.939c-2.56,0-4.267-0.853-5.973-2.56c-3.413-3.413-3.413-8.533,0-11.947l18.773-18.773
		c3.413-3.413,8.533-3.413,11.947,0c3.413,3.413,3.413,8.533,0,11.947l-18.773,18.773
		C460.653,441.086,458.947,441.939,456.387,441.939z"/>
	<path d="M439.32,505.086c-1.707,0-3.413-0.853-5.12-1.707l-52.053-40.107c-1.707-1.707-3.413-3.413-3.413-5.973
		s0.853-5.12,2.56-6.827l69.12-69.12c1.707-1.707,4.267-2.56,6.827-2.56s5.12,1.707,5.973,3.413l40.107,52.053
		c2.56,3.413,2.56,8.533-0.853,11.093l-57.173,57.173C443.587,504.232,441.027,505.086,439.32,505.086z M400.067,455.592
		l38.4,29.867l46.933-46.933l-29.867-38.4L400.067,455.592z"/>
	<path d="M249.027,400.979c-6.827,0-12.8-2.56-17.92-7.68c-4.267-4.267-7.68-11.093-7.68-17.92s2.56-12.8,7.68-17.92L357.4,231.166
		c9.387-9.387,25.6-9.387,34.987,0c9.387,9.387,9.387,25.6,0,34.987l-125.44,127.147
		C261.827,398.419,255.853,400.979,249.027,400.979z M376.173,241.406c-1.707,0-4.267,0.853-5.12,2.56L243.907,370.259
		c-1.707,1.707-2.56,3.413-2.56,5.12s0.853,4.267,2.56,5.12c2.56,2.56,7.68,2.56,11.093,0l126.293-125.44
		c3.413-3.413,3.413-7.68,0-11.093C379.587,242.259,377.88,241.406,376.173,241.406z"/>
	<path d="M368.493,470.099c-10.24,0-19.627-3.413-26.453-10.24l-86.187-66.56c-1.707-1.707-3.413-3.413-3.413-5.973
		s0.853-5.12,2.56-6.827l126.293-125.44c1.707-1.707,4.267-2.56,6.827-2.56c2.56,0,5.12,1.707,5.973,3.413l66.56,86.187
		c13.653,16.213,12.8,40.107-2.56,55.467l-60.587,60.587C389.827,465.832,379.587,470.099,368.493,470.099z M273.773,386.472
		l78.507,60.587c10.24,8.533,24.747,7.68,33.28-0.853l60.587-60.587c8.533-8.533,9.387-23.04,0.853-32.427l-60.587-79.36
		L273.773,386.472z"/>
	<path d="M347.16,408.659c-12.8,0-23.893-5.12-33.28-13.653l-30.72-30.72c-3.413-3.413-3.413-8.533,0-11.947l69.12-69.12
		c1.707-1.707,3.413-2.56,5.973-2.56l0,0c2.56,0,4.267,0.853,5.973,2.56l30.72,30.72c17.92,17.92,17.92,47.787,0,66.56
		l-14.507,14.507C371.053,404.392,359.96,408.659,347.16,408.659z M301.933,358.312l24.747,24.747
		c11.093,11.093,30.72,11.093,41.813,0L383,368.552c11.947-11.947,11.947-30.72,0-41.813l-24.747-24.747L301.933,358.312z"/>
</g>
</svg>