<?xml version="1.0" encoding="iso-8859-1"?>
<!-- Uploaded to: SVG Repo, www.svgrepo.com, Generator: SVG Repo Mixer Tools -->
<svg height="800px" width="800px" version="1.1" id="Layer_1" xmlns="http://www.w3.org/2000/svg" xmlns:xlink="http://www.w3.org/1999/xlink" 
	 viewBox="0 0 512 512" xml:space="preserve">
<g transform="translate(1 1)">
	<path style="fill:#FFE100;" d="M485.4,67.267H24.6c-9.387,0-17.067,7.68-17.067,17.067V255v170.667
		c0,9.387,7.68,17.067,17.067,17.067h460.8c9.387,0,17.067-7.68,17.067-17.067V255V84.333
		C502.467,74.947,494.787,67.267,485.4,67.267"/>
	<path style="fill:#FFA800;" d="M485.4,67.267h-25.6c9.387,0,17.067,7.68,17.067,17.067V255v170.667
		c0,9.387-7.68,17.067-17.067,17.067h25.6c9.387,0,17.067-7.68,17.067-17.067V255V84.333
		C502.467,74.947,494.787,67.267,485.4,67.267"/>
	<path style="fill:#FFFFFF;" d="M24.6,67.267h25.6c-9.387,0-17.067,7.68-17.067,17.067V255v170.667
		c0,9.387,7.68,17.067,17.067,17.067H24.6c-9.387,0-17.067-7.68-17.067-17.067V255V84.333C7.533,74.947,15.213,67.267,24.6,67.267"
		/>
	<path style="fill:#FDCC00;" d="M212.333,212.333h-153.6c-9.387,0-17.067-7.68-17.067-17.067V127c0-9.387,7.68-17.067,17.067-17.067
		h153.6c9.387,0,17.067,7.68,17.067,17.067v68.267C229.4,204.653,221.72,212.333,212.333,212.333"/>
	<polygon style="fill:#FFE100;" points="75.8,178.2 195.267,178.2 195.267,144.067 75.8,144.067 	"/>
	<path style="fill:#FDCC00;" d="M451.267,212.333h-153.6c-9.387,0-17.067-7.68-17.067-17.067V127c0-9.387,7.68-17.067,17.067-17.067
		h153.6c9.387,0,17.067,7.68,17.067,17.067v68.267C468.333,204.653,460.653,212.333,451.267,212.333"/>
	<polygon style="fill:#FFE100;" points="314.733,178.2 434.2,178.2 434.2,144.067 314.733,144.067 	"/>
	<path style="fill:#FDCC00;" d="M451.267,400.067h-153.6c-9.387,0-17.067-7.68-17.067-17.067v-68.267
		c0-9.387,7.68-17.067,17.067-17.067h153.6c9.387,0,17.067,7.68,17.067,17.067V383C468.333,392.387,460.653,400.067,451.267,400.067
		"/>
	<polygon style="fill:#FFE100;" points="314.733,365.933 434.2,365.933 434.2,331.8 314.733,331.8 	"/>
	<path style="fill:#FDCC00;" d="M212.333,400.067h-153.6c-9.387,0-17.067-7.68-17.067-17.067v-68.267
		c0-9.387,7.68-17.067,17.067-17.067h153.6c9.387,0,17.067,7.68,17.067,17.067V383C229.4,392.387,221.72,400.067,212.333,400.067"/>
	<polygon style="fill:#FFE100;" points="75.8,365.933 195.267,365.933 195.267,331.8 75.8,331.8 	"/>
	<path d="M195.267,186.733H75.8c-5.12,0-8.533-3.413-8.533-8.533v-34.133c0-5.12,3.413-8.533,8.533-8.533h119.467
		c5.12,0,8.533,3.413,8.533,8.533V178.2C203.8,183.32,200.387,186.733,195.267,186.733z M84.333,169.667h102.4V152.6h-102.4V169.667
		z"/>
	<path d="M212.333,220.867h-153.6c-14.507,0-25.6-11.093-25.6-25.6V127c0-14.507,11.093-25.6,25.6-25.6h153.6
		c14.507,0,25.6,11.093,25.6,25.6v68.267C237.933,209.773,226.84,220.867,212.333,220.867z M58.733,118.467
		c-5.12,0-8.533,4.267-8.533,8.533v68.267c0,5.12,3.413,8.533,8.533,8.533h153.6c5.12,0,8.533-3.413,8.533-8.533V127
		c0-5.12-3.413-8.533-8.533-8.533H58.733z"/>
	<path d="M434.2,186.733H314.733c-5.12,0-8.533-3.413-8.533-8.533v-34.133c0-5.12,3.413-8.533,8.533-8.533H434.2
		c5.12,0,8.533,3.413,8.533,8.533V178.2C442.733,183.32,439.32,186.733,434.2,186.733z M323.267,169.667h102.4V152.6h-102.4V169.667
		z"/>
	<path d="M451.267,220.867h-153.6c-14.507,0-25.6-11.093-25.6-25.6V127c0-14.507,11.093-25.6,25.6-25.6h153.6
		c14.507,0,25.6,11.093,25.6,25.6v68.267C476.867,209.773,465.773,220.867,451.267,220.867z M297.667,118.467
		c-5.12,0-8.533,3.413-8.533,8.533v68.267c0,5.12,3.413,8.533,8.533,8.533h153.6c5.12,0,8.533-3.413,8.533-8.533V127
		c0-5.12-3.413-8.533-8.533-8.533H297.667z"/>
	<path d="M502.467,263.533H7.533C2.413,263.533-1,260.12-1,255V84.333c0-14.507,11.093-25.6,25.6-25.6h460.8
		c14.507,0,25.6,11.093,25.6,25.6V255C511,260.12,507.587,263.533,502.467,263.533z M16.067,246.467h477.867V84.333
		c0-5.12-3.413-8.533-8.533-8.533H24.6c-5.12,0-8.533,4.267-8.533,8.533V246.467z"/>
	<path d="M195.267,374.467H75.8c-5.12,0-8.533-3.413-8.533-8.533V331.8c0-5.12,3.413-8.533,8.533-8.533h119.467
		c5.12,0,8.533,3.413,8.533,8.533v34.133C203.8,371.053,200.387,374.467,195.267,374.467z M84.333,357.4h102.4v-17.067h-102.4V357.4
		z"/>
	<path d="M212.333,408.6h-153.6c-14.507,0-25.6-11.093-25.6-25.6v-68.267c0-14.507,11.093-25.6,25.6-25.6h153.6
		c14.507,0,25.6,11.093,25.6,25.6V383C237.933,397.507,226.84,408.6,212.333,408.6z M58.733,306.2c-5.12,0-8.533,3.413-8.533,8.533
		V383c0,5.12,3.413,8.533,8.533,8.533h153.6c5.12,0,8.533-3.413,8.533-8.533v-68.267c0-5.12-3.413-8.533-8.533-8.533H58.733z"/>
	<path d="M434.2,374.467H314.733c-5.12,0-8.533-3.413-8.533-8.533V331.8c0-5.12,3.413-8.533,8.533-8.533H434.2
		c5.12,0,8.533,3.413,8.533,8.533v34.133C442.733,371.053,439.32,374.467,434.2,374.467z M323.267,357.4h102.4v-17.067h-102.4V357.4
		z"/>
	<path d="M451.267,408.6h-153.6c-14.507,0-25.6-11.093-25.6-25.6v-68.267c0-14.507,11.093-25.6,25.6-25.6h153.6
		c14.507,0,25.6,11.093,25.6,25.6V383C476.867,397.507,465.773,408.6,451.267,408.6z M297.667,306.2
		c-5.12,0-8.533,3.413-8.533,8.533V383c0,5.12,3.413,8.533,8.533,8.533h153.6c5.12,0,8.533-3.413,8.533-8.533v-68.267
		c0-5.12-3.413-8.533-8.533-8.533H297.667z"/>
	<path d="M485.4,451.267H24.6c-14.507,0-25.6-11.093-25.6-25.6V255c0-5.12,3.413-8.533,8.533-8.533h494.933
		c5.12,0,8.533,3.413,8.533,8.533v170.667C511,440.173,499.907,451.267,485.4,451.267z M16.067,263.533v162.133
		c0,5.12,3.413,8.533,8.533,8.533h460.8c5.12,0,8.533-3.413,8.533-8.533V263.533H16.067z"/>
</g>
</svg>