<?xml version="1.0" encoding="iso-8859-1"?>
<!-- Uploaded to: SVG Repo, www.svgrepo.com, Generator: SVG Repo Mixer Tools -->
<svg height="800px" width="800px" version="1.1" id="Layer_1" xmlns="http://www.w3.org/2000/svg" xmlns:xlink="http://www.w3.org/1999/xlink" 
	 viewBox="0 0 512 512" xml:space="preserve">
<g transform="translate(0 1)">
	<g>
		<path style="fill:#FFE100;" d="M145.237,383v25.6c0,52.053,41.813,93.867,93.867,93.867h110.933
			c52.053,0,93.867-41.813,93.867-93.867V7.533h-34.133V408.6c0,33.28-26.453,59.733-59.733,59.733H239.104
			c-33.28,0-59.733-26.453-59.733-59.733V383H145.237z"/>
		<polygon style="fill:#FFE100;" points="102.571,109.933 222.037,109.933 222.037,7.533 102.571,7.533 		"/>
	</g>
	<polygon style="fill:#FFA800;" points="204.971,109.933 222.037,109.933 222.037,7.533 204.971,7.533 	"/>
	<polygon style="fill:#FFFFFF;" points="102.571,109.933 119.637,109.933 119.637,7.533 102.571,7.533 	"/>
	<path style="fill:#FFE100;" d="M238.251,341.187H86.357c-12.8,0-21.333-12.8-16.213-24.747v-1.707
		c4.267-11.093,6.827-31.573,6.827-43.52V118.467c0-5.12,3.413-8.533,8.533-8.533h153.6c5.12,0,8.533,3.413,8.533,8.533v152.747
		c0,11.947,2.56,32.427,6.827,43.52l0.853,1.707C259.584,328.387,251.051,341.187,238.251,341.187"/>
	<path style="fill:#FFA800;" d="M254.464,316.44v-1.707c-4.267-11.093-6.827-31.573-6.827-43.52V118.467
		c0-5.12-3.413-8.533-8.533-8.533h-25.6c5.12,0,8.533,3.413,8.533,8.533v152.747c0,11.947,2.56,32.427,6.827,43.52l0.853,1.707
		c4.267,11.947-4.267,24.747-16.213,24.747h25.6C251.051,341.187,259.584,328.387,254.464,316.44"/>
	<path style="fill:#FFFFFF;" d="M70.144,316.44v-1.707c4.267-11.093,6.827-31.573,6.827-43.52V118.467
		c0-5.12,3.413-8.533,8.533-8.533h25.6c-5.12,0-8.533,3.413-8.533,8.533v152.747c0,11.947-2.56,32.427-6.827,43.52l-0.853,1.707
		c-4.267,11.947,4.267,24.747,16.213,24.747h-25.6C73.557,341.187,65.024,328.387,70.144,316.44"/>
	<path style="fill:#FFE100;" d="M187.904,383h-51.2c-5.12,0-8.533-3.413-8.533-8.533v-33.28h68.267v33.28
		C196.437,379.587,193.024,383,187.904,383"/>
	<path style="fill:#FFA800;" d="M179.371,341.187v33.28c0,5.12-3.413,8.533-8.533,8.533h17.067c5.12,0,8.533-3.413,8.533-8.533
		v-33.28H179.371z"/>
	<path style="fill:#FFFFFF;" d="M145.237,341.187v33.28c0,5.12,3.413,8.533,8.533,8.533h-17.067c-5.12,0-8.533-3.413-8.533-8.533
		v-33.28H145.237z"/>
	<path d="M222.037,118.467H102.571c-5.12,0-8.533-3.413-8.533-8.533V7.533c0-5.12,3.413-8.533,8.533-8.533h119.467
		c5.12,0,8.533,3.413,8.533,8.533v102.4C230.571,115.053,227.157,118.467,222.037,118.467z M111.104,101.4h102.4V16.067h-102.4
		V101.4z"/>
	<path d="M238.251,348.867H86.357c-8.533,0-17.067-4.267-22.187-11.947c-5.12-6.827-5.973-16.213-2.56-24.747l0.853-1.707
		c4.267-9.387,5.973-19.627,5.973-30.72v-161.28c0-9.387,7.68-17.067,17.067-17.067h153.6c9.387,0,17.067,7.68,17.067,17.067v161.28
		c0,11.093,1.707,21.333,5.973,30.72l0.853,1.707c3.413,8.533,2.56,17.067-2.56,24.747
		C255.317,344.6,246.784,348.867,238.251,348.867z M85.504,118.467v161.28c0,12.8-2.56,25.6-6.827,37.547L77.824,319
		c-0.853,2.56-0.853,5.973,0.853,8.533s4.267,4.267,7.68,4.267h151.893c3.413,0,5.973-1.707,7.68-4.267s1.707-5.973,0.853-8.533
		l-0.853-1.707c-5.12-11.947-6.827-24.747-6.827-37.547v-161.28H85.504z"/>
	<path d="M187.904,391.533h-51.2c-9.387,0-17.067-7.68-17.067-17.067v-34.133c0-5.12,3.413-8.533,8.533-8.533h68.267
		c5.12,0,8.533,3.413,8.533,8.533v34.133C204.971,383.853,197.291,391.533,187.904,391.533z M187.904,374.467V383V374.467
		L187.904,374.467z M136.704,348.867v25.6h51.2v-25.6H136.704z"/>
	<path d="M136.704,75.8c-5.12,0-8.533-3.413-8.533-8.533V33.133c0-5.12,3.413-8.533,8.533-8.533c5.12,0,8.533,3.413,8.533,8.533
		v34.133C145.237,72.387,141.824,75.8,136.704,75.8z"/>
	<path d="M187.904,75.8c-5.12,0-8.533-3.413-8.533-8.533V33.133c0-5.12,3.413-8.533,8.533-8.533c5.12,0,8.533,3.413,8.533,8.533
		v34.133C196.437,72.387,193.024,75.8,187.904,75.8z"/>
	<path d="M350.037,511H239.104c-56.32,0-102.4-46.08-102.4-102.4V383c0-5.12,3.413-8.533,8.533-8.533h34.133
		c5.12,0,8.533,3.413,8.533,8.533v25.6c0,28.16,23.04,51.2,51.2,51.2h110.933c28.16,0,51.2-23.04,51.2-51.2V7.533
		c0-5.12,3.413-8.533,8.533-8.533h34.133c5.12,0,8.533,3.413,8.533,8.533V408.6C452.437,464.92,406.357,511,350.037,511z
		 M153.771,391.533V408.6c0,46.933,38.4,85.333,85.333,85.333h110.933c46.933,0,85.333-38.4,85.333-85.333V16.067h-17.067V408.6
		c0,37.547-30.72,68.267-68.267,68.267H239.104c-37.547,0-68.267-30.72-68.267-68.267v-17.067H153.771z"/>
</g>
</svg>