<?xml version="1.0" encoding="UTF-8" standalone="no"?>
<!-- Uploaded to: SVG Repo, www.svgrepo.com, Generator: SVG Repo Mixer Tools -->

<svg
   fill="#000000"
   width="800px"
   height="800px"
   viewBox="0 0 256 256"
   id="Flat"
   version="1.1"
   sodipodi:docname="launcher.svg"
   inkscape:version="1.3 (0e150ed, 2023-07-21)"
   xmlns:inkscape="http://www.inkscape.org/namespaces/inkscape"
   xmlns:sodipodi="http://sodipodi.sourceforge.net/DTD/sodipodi-0.dtd"
   xmlns="http://www.w3.org/2000/svg"
   xmlns:svg="http://www.w3.org/2000/svg">
  <defs
     id="defs1" />
  <sodipodi:namedview
     id="namedview1"
     pagecolor="#ffffff"
     bordercolor="#666666"
     borderopacity="1.0"
     inkscape:showpageshadow="2"
     inkscape:pageopacity="0.0"
     inkscape:pagecheckerboard="true"
     inkscape:deskcolor="#d1d1d1"
     inkscape:zoom="0.56619606"
     inkscape:cx="266.69207"
     inkscape:cy="399.15502"
     inkscape:window-width="1440"
     inkscape:window-height="847"
     inkscape:window-x="0"
     inkscape:window-y="25"
     inkscape:window-maximized="0"
     inkscape:current-layer="Flat" />
  <path
     style="fill:#ffe100;fill-opacity:1"
     d="m 47.703125,33.794922 c -13.055157,3.658366 0.129579,15.967903 5.333025,21.022386 9.512867,10.476108 19.039789,20.939523 28.516584,31.448317 -0.05974,10.154875 -13.334375,16.327105 -18.814049,24.774925 -6.717478,8.11128 -15.61539,14.93556 -20.871219,23.94142 1.482627,11.22577 17.830996,9.76411 25.786629,15.01631 12.395916,4.65223 24.791843,9.30443 37.187705,13.9568 -5.04318,25.25851 -10.16711,50.50117 -15.060786,75.78927 3.437041,14.06608 15.759326,0.26401 20.371516,-5.79645 17.36553,-18.52484 34.57113,-37.20744 52.03692,-55.63339 9.50734,2.60616 14.86824,15.08928 22.72043,21.5789 7.36515,7.13398 13.20803,16.39333 21.60774,22.14029 12.15526,0.77517 6.42236,-13.91146 -0.61641,-17.61761 C 154.67862,148.03672 103.4377,91.673859 52.139345,35.363487 50.926639,34.314195 49.314351,33.704546 47.703125,33.794922 Z m 44.914063,64.546875 c 20.886502,22.989603 41.779052,45.973713 62.666012,68.962893 -16.28536,17.45796 -32.57501,34.91193 -48.86328,52.36719 3.85016,-20.22079 8.53139,-40.37959 11.74648,-60.66224 -3.72955,-8.43036 -15.75973,-7.64766 -22.995065,-12.00731 -10.371072,-4.21908 -21.325725,-7.32757 -31.342986,-12.20514 -3.710621,-8.51277 8.831668,-13.78961 12.890713,-20.44657 5.143657,-5.50826 10.287311,-11.01652 15.431329,-16.524448 l 0.367239,0.405653 z"
     id="path4" />
  <path
     style="fill:#ff2900;fill-opacity:1;stroke-width:0;stroke-linejoin:round;paint-order:stroke fill markers"
     d="m 334.77415,679.17772 c 2.93409,-9.87482 34.80804,-175.52703 34.80804,-180.90101 0,-12.70263 -1.68503,-13.5779 -87.76571,-45.58884 -62.04854,-23.07408 -78.17191,-29.66442 -81.72678,-33.40543 -4.86288,-5.11751 -5.37893,-8.32748 -2.24636,-13.97298 1.13743,-2.04987 21.87447,-24.9757 46.08231,-50.94628 l 44.01425,-47.21925 98.01977,107.89597 98.01976,107.89598 -10.90021,11.53004 c -5.9951,6.34152 -39.4383,42.13002 -74.31821,79.53 -34.87991,37.39998 -63.73441,67.99996 -64.12112,67.99996 -0.38671,0 -0.32629,-1.26817 0.13426,-2.81816 z"
     id="path5"
     transform="scale(0.32)" />
  <path
     id="path1-8"
     style="fill:#ffe100;fill-opacity:1"
     d="m 157.14844,11.107422 c -6.06111,1.015146 -8.79609,7.653897 -13.20735,11.293158 -12.71823,13.688165 -25.56324,27.265168 -38.2021,41.022922 -3.97841,5.521554 1.64497,10.587355 5.23751,14.306713 22.39474,24.625685 44.77005,49.269035 67.17975,73.881115 6.9416,6.2851 13.02935,-2.85018 17.42393,-7.53843 5.44523,-6.01827 11.28526,-11.72 16.47957,-17.93976 3.66203,-6.34624 -3.16018,-11.52672 -8.89181,-12.4422 -17.68749,-6.63265 -35.37513,-13.26491 -53.06247,-19.897971 4.94881,-25.038722 10.1308,-50.040703 14.92963,-75.103237 0.27686,-4.263736 -3.70548,-7.887592 -7.88666,-7.58231 z" />
</svg>
